# xmcd CD database file
#
# Track frame offsets:
#	150
#	28212
#	51477
#	74352
#	99020
#	135605
#	167650
#	185492
#	204960
#	229012
#	254530
#
# Disc length: 3740 seconds
#
# Revision: 0
# Processed by: cddbd v1.5.1PL2 Copyright (c) Steve Scherf et al.
# Submitted via: CDex 1.51
#
DISCID=970e9a0b
DTITLE=European Jazz Trio featuring Art Farmer - Ballad of The Sad Young Man
DYEAR=1998
DGENRE=Jazz
TTITLE0=Che Voule Questa Musika Stasera
TTITLE1=Ballad Of The Sad Young Man
TTITLE2=Hello
TTITLE3=Plein Soleil
TTITLE4=How Deep Is The Ocean
TTITLE5=Chopin Prelude Op.28
TTITLE6=Sweet Sweep
TTITLE7=Jealous Guy
TTITLE8=Waltz
TTITLE9=Sonata Nr.8 Op.13 Pathetique
TTITLE10=In Your Own Sweet Way
EXTD=YEAR: 1998
EXTT0=
EXTT1=
EXTT2=
EXTT3=
EXTT4=
EXTT5=
EXTT6=
EXTT7=
EXTT8=
EXTT9=
EXTT10=
PLAYORDER=
